<?xml version="1.0" encoding="UTF-8" standalone="no"?>
<!-- Created with Inkscape (http://www.inkscape.org/) -->

<svg
   xmlns:dc="http://purl.org/dc/elements/1.1/"
   xmlns:cc="http://creativecommons.org/ns#"
   xmlns:rdf="http://www.w3.org/1999/02/22-rdf-syntax-ns#"
   xmlns:svg="http://www.w3.org/2000/svg"
   xmlns="http://www.w3.org/2000/svg"
   xmlns:sodipodi="http://sodipodi.sourceforge.net/DTD/sodipodi-0.dtd"
   xmlns:inkscape="http://www.inkscape.org/namespaces/inkscape"
   id="svg2"
   version="1.1"
   inkscape:version="0.47 r22583"
   width="200"
   height="200"
   xml:space="preserve"
   sodipodi:docname="logo.svg"><metadata
     id="metadata8"><rdf:RDF><cc:Work
         rdf:about=""><dc:format>image/svg+xml</dc:format><dc:type
           rdf:resource="http://purl.org/dc/dcmitype/StillImage" /><dc:title /></cc:Work></rdf:RDF></metadata><defs
     id="defs6"><inkscape:perspective
       sodipodi:type="inkscape:persp3d"
       inkscape:vp_x="0 : 0.5 : 1"
       inkscape:vp_y="0 : 1000 : 0"
       inkscape:vp_z="1 : 0.5 : 1"
       inkscape:persp3d-origin="0.5 : 0.33333333 : 1"
       id="perspective10" /><clipPath
       clipPathUnits="userSpaceOnUse"
       id="clipPath20"><path
         d="M 0,2790 0,0 l 2790,0 0,2790 -2790,0 z"
         id="path22" /></clipPath></defs><sodipodi:namedview
     pagecolor="#ffffff"
     bordercolor="#666666"
     borderopacity="1"
     objecttolerance="10"
     gridtolerance="10"
     guidetolerance="10"
     inkscape:pageopacity="0"
     inkscape:pageshadow="2"
     inkscape:window-width="1280"
     inkscape:window-height="750"
     id="namedview4"
     showgrid="false"
     inkscape:zoom="1"
     inkscape:cx="-65.5"
     inkscape:cy="100"
     inkscape:window-x="0"
     inkscape:window-y="25"
     inkscape:window-maximized="1"
     inkscape:current-layer="g12" /><g
     id="g12"
     inkscape:groupmode="layer"
     inkscape:label="ink_ext_XXXXXX"
     transform="matrix(1.25,0,0,-1.25,-74.375,274.375)"><g
       id="g18"
       clip-path="url(#clipPath20)"
       transform="matrix(0.05734767,0,0,0.05734767,59.5,59.5)"><path
         d="m 113.027,119.73 270.114,0 0,132.02 -125.953,0 0,408.199 -144.161,0 0,-540.219"
         style="fill:#231f20;fill-opacity:1;fill-rule:nonzero;stroke:none"
         id="path26" /><path
         d="m 519.633,757.07 c 0,-36.429 29.59,-66.019 66.012,-66.019 36.421,0 66.011,29.59 66.011,66.019 0,36.418 -29.59,66.008 -66.011,66.008 -36.422,0 -66.012,-29.59 -66.012,-66.008 l 0,0 z m 174.512,0 c 0,-36.429 29.589,-66.019 66.011,-66.019 36.422,0 66.012,29.59 66.012,66.019 0,36.418 -29.59,66.008 -66.012,66.008 -36.422,0 -66.011,-29.59 -66.011,-66.008 l 0,0 z m 13.66,-424.898 -69.809,0 34.145,223.066 1.515,0 34.149,-223.066 0,0 z M 455.898,119.73 l 150.231,0 13.656,91.04 106.227,0 13.656,-91.04 150.234,0 -105.468,540.219 -223.071,0 -105.465,-540.219 0,0"
         style="fill:#231f20;fill-opacity:1;fill-rule:evenodd;stroke:none"
         id="path28" /><path
         d="m 984.176,119.73 132.014,0 0,345.981 1.52,0 106.23,-345.981 164.64,0 0,540.219 -132.02,0 0,-346.75 -1.52,0 -106.22,346.75 -164.644,0 0,-540.219"
         style="fill:#231f20;fill-opacity:1;fill-rule:nonzero;stroke:none"
         id="path30" /><path
         d="m 1719.65,329.891 53.87,0 0,-35.653 c 0,-28.078 -15.18,-47.039 -51.61,-47.039 -52.34,0 -72.83,51.59 -72.83,135.051 0,95.602 38.69,154.781 112.29,154.781 37.18,0 75.11,-17.453 94.08,-38.691 l 0,147.949 c -26.54,12.902 -64.49,22.762 -118.36,22.762 -152.5,0 -236.72,-122.922 -236.72,-278.449 0,-166.172 65.24,-279.981 213.97,-279.981 127.46,0 191.19,75.867 191.19,187.41 l 0,141.117 -185.88,0 0,-109.257"
         style="fill:#231f20;fill-opacity:1;fill-rule:nonzero;stroke:none"
         id="path32" /><path
         d="m 2025.63,119.73 270.11,0 0,132.02 -125.95,0 0,408.199 -144.16,0 0,-540.219"
         style="fill:#231f20;fill-opacity:1;fill-rule:nonzero;stroke:none"
         id="path34" /><path
         d="m 2397.32,119.73 275.43,0 0,125.942 -131.27,0 0,84.976 113.81,0 0,125.954 -113.81,0 0,77.386 129.75,0 0,125.961 -273.91,0 0,-540.219"
         style="fill:#231f20;fill-opacity:1;fill-rule:nonzero;stroke:none"
         id="path36" /><path
         d="m 257.188,1492.05 22.761,0 c 37.18,0 66.77,-15.93 66.77,-56.9 0,-41.74 -31.11,-61.46 -63.731,-61.46 -9.105,0 -17.457,0.75 -25.8,2.28 l 0,116.08 z m -144.161,-418.83 144.161,0 0,191.2 37.941,0 74.351,-191.2 148.719,0 -96.363,229.14 c 55.391,22.77 78.148,75.12 78.148,138.1 0,86.49 -42.488,172.99 -181.336,172.99 l -205.621,0 0,-540.23"
         style="fill:#231f20;fill-opacity:1;fill-rule:evenodd;stroke:none"
         id="path38" /><path
         d="m 1025.12,1343.34 c -0.76,147.19 -60.694,279.21 -227.62,279.21 -166.926,0 -226.863,-132.02 -227.621,-279.21 -0.762,-156.3 65.25,-279.22 227.621,-279.22 162.367,0 228.38,122.92 227.62,279.22 l 0,0 z m -306.53,3.79 c 0,97.88 31.863,138.85 78.91,138.85 47.043,0 78.91,-40.97 78.91,-138.85 0,-97.88 -31.867,-138.85 -78.91,-138.85 -47.047,0 -78.91,40.97 -78.91,138.85 l 0,0"
         style="fill:#231f20;fill-opacity:1;fill-rule:evenodd;stroke:none"
         id="path40" /><path
         d="m 1250.17,1492.05 25.04,0 c 44,0 66.77,-11.38 66.77,-45.52 0,-25.8 -15.94,-44.01 -51.59,-44.01 l -40.22,0 0,89.53 z m 0,-194.24 39.45,0 c 40.22,0 58.43,-13.65 58.43,-48.56 0,-28.83 -15.94,-50.07 -50.08,-50.07 l -47.8,0 0,98.63 z m -144.16,-224.59 203.34,0 c 131.26,0 187.41,79.67 187.41,157.06 0,81.19 -47.8,116.09 -94.08,127.47 l 0,1.52 c 49.31,15.94 79.66,55.39 79.66,110.78 0,75.12 -50.07,143.4 -167.68,143.4 l -208.65,0 0,-540.23"
         style="fill:#231f20;fill-opacity:1;fill-rule:evenodd;stroke:none"
         id="path42" /><path
         d="m 1574.24,1073.22 275.43,0 0,125.96 -131.27,0 0,84.98 113.81,0 0,125.95 -113.81,0 0,77.39 129.74,0 0,125.95 -273.9,0 0,-540.23"
         style="fill:#231f20;fill-opacity:1;fill-rule:nonzero;stroke:none"
         id="path44" /><path
         d="m 2073.34,1492.05 22.75,0 c 37.17,0 66.78,-15.93 66.78,-56.9 0,-41.74 -31.11,-61.46 -63.75,-61.46 -9.1,0 -17.44,0.75 -25.78,2.28 l 0,116.08 z m -144.18,-418.83 144.18,0 0,191.2 37.93,0 74.36,-191.2 148.71,0 -96.37,229.14 c 55.39,22.77 78.16,75.12 78.16,138.1 0,86.49 -42.5,172.99 -181.34,172.99 l -205.63,0 0,-540.23"
         style="fill:#231f20;fill-opacity:1;fill-rule:evenodd;stroke:none"
         id="path46" /><path
         d="m 2450.41,1073.22 144.16,0 0,414.28 92.56,0 0,125.95 -329.3,0 0,-125.95 92.58,0 0,-414.28"
         style="fill:#231f20;fill-opacity:1;fill-rule:nonzero;stroke:none"
         id="path48" /><path
         d="m 140.23,2345.38 c 0,13.4 0,38.63 0,66.23 0,27.59 6.301,38.64 26.805,38.64 20.504,0 26.024,-11.05 26.024,-38.64 0,-17.35 0,-82 0,-82 l 24.441,0 c 0,0 0,63.08 0,85.16 0,30.75 -17.348,43.36 -50.465,43.36 -33.113,0 -52.039,-12.61 -52.039,-43.36 0,-29.97 0,-55.2 0,-72.55 0,-44.15 20.496,-67.81 41.789,-92.26 23.66,-27.59 35.485,-52.03 35.485,-102.5 0,-9.46 0,-49.67 0,-68.6 0,-27.59 -3.946,-38.63 -25.235,-38.63 -20.504,0 -26.805,11.04 -26.805,38.63 0,15.77 0,89.89 0,89.89 l -25.234,0 c 0,0 0,-73.32 0,-93.04 0,-30.75 18.926,-43.37 52.039,-43.37 33.117,0 50.465,12.62 50.465,43.37 0,14.98 0,63.08 0,77.27 0,56.78 -23.656,90.68 -42.578,112.76 -24.442,28.38 -34.692,44.15 -34.692,79.64 l 0,0"
         style="fill:#231f20;fill-opacity:1;fill-rule:nonzero;stroke:none"
         id="path50" /><path
         d="m 450.992,2180.58 c 0,0 0,-69.39 0,-101.72 0,-27.59 -6.308,-39.42 -26.808,-39.42 -18.926,0 -25.235,11.83 -25.235,39.42 0,156.12 0,176.63 0,332.75 0,27.59 7.102,38.64 27.598,38.64 20.504,0 24.445,-12.62 24.445,-40.22 0,-17.34 0,-85.16 0,-85.16 l 24.446,0 c 0,0 0,73.33 0,88.31 0,30.76 -15.77,44.95 -48.891,44.95 -33.113,0 -52.039,-12.61 -52.039,-43.36 0,-156.92 0,-179.79 0,-336.7 0,-30.75 16.562,-46.52 49.676,-46.52 33.117,0 51.254,13.41 51.254,44.16 0,33.9 0,104.87 0,104.87 l -24.446,0 0,0"
         style="fill:#231f20;fill-opacity:1;fill-rule:nonzero;stroke:none"
         id="path52" /><path
         d="m 687.641,2448.67 c 21.289,0 25.23,-14.98 25.23,-47.31 0,-141.93 0,-365.86 0,-365.86 l 25.234,0 c 0,0 0,225.51 0,368.23 0,37.84 -17.347,54.4 -46.523,54.4 -19.711,0 -29.961,-13.4 -32.328,-23.66 l 0,208.96 -25.231,0 0,-607.93 25.231,0 0,335.11 c 0,55.19 9.461,78.06 28.387,78.06 l 0,0"
         style="fill:#231f20;fill-opacity:1;fill-rule:nonzero;stroke:none"
         id="path54" /><path
         d="m 954.918,2445.52 c 21.289,0 24.441,-13.41 24.441,-45.74 0,-15.77 -2.363,-48.88 -2.363,-48.88 l 26.024,0 c 0,0 2.37,29.96 2.37,51.25 0,39.42 -17.359,55.98 -46.527,55.98 -19.715,0 -31.543,-15.77 -33.906,-28.38 l 0,20.5 -25.234,0 0,-414.75 25.234,0 0,372.95 c 7.098,18.93 13.402,33.91 29.961,37.07 l 0,0"
         style="fill:#231f20;fill-opacity:1;fill-rule:evenodd;stroke:none"
         id="path56" /><path
         d="m 1174.63,2411.61 c 0,27.59 7.1,38.64 27.6,38.64 20.5,0 24.44,-12.62 24.44,-40.22 0,-17.34 0,-137.19 0,-137.19 l -52.04,0 0,138.77 z m 0,-149.03 76.49,0 c 0,0 0,135.62 0,150.6 0,30.76 -15.77,44.95 -48.89,44.95 -33.12,0 -52.04,-12.61 -52.04,-43.36 0,-156.92 0,-179.79 0,-336.7 0,-30.75 16.55,-46.52 49.67,-46.52 33.12,0 51.26,13.41 51.26,44.16 0,33.9 0,96.19 0,96.19 l -24.45,0 c 0,0 0,-60.71 0,-93.04 0,-27.59 -6.3,-39.42 -26.81,-39.42 -18.92,0 -25.23,11.83 -25.23,39.42 0,0 0,119.07 0,183.72 l 0,0"
         style="fill:#231f20;fill-opacity:1;fill-rule:evenodd;stroke:none"
         id="path58" /><path
         d="m 1438.09,2600.85 -29.96,0 3.14,-53.62 23.67,0 3.15,53.62 0,0 z m -2.37,-150.6 -25.23,0 0,-414.75 25.23,0 0,414.75"
         style="fill:#231f20;fill-opacity:1;fill-rule:evenodd;stroke:none"
         id="path60" /><path
         d="m 1651.39,2448.67 c 21.29,0 25.23,-14.98 25.23,-47.31 0,-141.93 0,-365.86 0,-365.86 l 25.24,0 c 0,0 0,225.51 0,368.23 0,37.84 -17.37,54.4 -46.53,54.4 -19.72,0 -29.96,-13.4 -32.34,-23.66 l 0,15.78 -25.22,0 0,-414.75 25.22,0 0,335.11 c 0,55.19 9.47,78.06 28.4,78.06 l 0,0"
         style="fill:#231f20;fill-opacity:1;fill-rule:evenodd;stroke:none"
         id="path62" /><path
         d="m 1886.33,2411.61 c 0,27.59 7.11,38.64 27.6,38.64 20.5,0 24.45,-12.62 24.45,-40.22 0,-17.34 0,-137.19 0,-137.19 l -52.05,0 0,138.77 z m 0,-149.03 76.48,0 c 0,0 0,135.62 0,150.6 0,30.76 -15.76,44.95 -48.88,44.95 -33.11,0 -52.04,-12.61 -52.04,-43.36 0,-156.92 0,-179.79 0,-336.7 0,-30.75 16.57,-46.52 49.67,-46.52 33.13,0 51.25,13.41 51.25,44.16 0,33.9 0,96.19 0,96.19 l -24.43,0 c 0,0 0,-60.71 0,-93.04 0,-27.59 -6.31,-39.42 -26.82,-39.42 -18.92,0 -25.23,11.83 -25.23,39.42 0,0 0,119.07 0,183.72 l 0,0"
         style="fill:#231f20;fill-opacity:1;fill-rule:evenodd;stroke:none"
         id="path64" /><path
         d="m 2176.6,2445.52 c 21.29,0 24.44,-13.41 24.44,-45.74 0,-15.77 -2.37,-48.88 -2.37,-48.88 l 26.02,0 c 0,0 2.38,29.96 2.38,51.25 0,39.42 -17.36,55.98 -46.52,55.98 -19.73,0 -31.55,-15.77 -33.91,-28.38 l 0,20.5 -25.23,0 0,-414.75 25.23,0 0,372.95 c 7.09,18.93 13.4,33.91 29.96,37.07 l 0,0"
         style="fill:#231f20;fill-opacity:1;fill-rule:evenodd;stroke:none"
         id="path66" /><path
         d="m 2396.31,2411.61 c 0,27.59 7.09,38.64 27.6,38.64 20.5,0 24.45,-12.62 24.45,-40.22 0,-17.34 0,-137.19 0,-137.19 l -52.05,0 0,138.77 z m 0,-149.03 76.48,0 c 0,0 0,135.62 0,150.6 0,30.76 -15.76,44.95 -48.88,44.95 -33.11,0 -52.03,-12.61 -52.03,-43.36 0,-156.92 0,-179.79 0,-336.7 0,-30.75 16.54,-46.52 49.66,-46.52 33.13,0 51.25,13.41 51.25,44.16 0,33.9 0,96.19 0,96.19 l -24.43,0 c 0,0 0,-60.71 0,-93.04 0,-27.59 -6.31,-39.42 -26.82,-39.42 -18.92,0 -25.23,11.83 -25.23,39.42 0,0 0,119.07 0,183.72 l 0,0"
         style="fill:#231f20;fill-opacity:1;fill-rule:evenodd;stroke:none"
         id="path68" /><path
         d="m 2659.77,2600.85 -29.97,0 3.15,-53.62 23.67,0 3.15,53.62 0,0 z m -2.37,-150.6 -25.23,0 0,-414.75 25.23,0 0,414.75"
         style="fill:#231f20;fill-opacity:1;fill-rule:evenodd;stroke:none"
         id="path70" /><path
         d="M 89.1172,911.238 2710.47,910.18 m -2615.5677,904.48 2612.5977,0"
         style="fill:none;stroke:#ffffff;stroke-width:52.3125;stroke-linecap:butt;stroke-linejoin:miter;stroke-miterlimit:3.8636899;stroke-opacity:1;stroke-dasharray:69.75, 69.75;stroke-dashoffset:0"
         id="path72" /></g></g></svg>