<?xml version="1.0" encoding="UTF-8" standalone="no"?>
<!-- Created with Inkscape (http://www.inkscape.org/) -->

<svg
   xmlns:dc="http://purl.org/dc/elements/1.1/"
   xmlns:cc="http://creativecommons.org/ns#"
   xmlns:rdf="http://www.w3.org/1999/02/22-rdf-syntax-ns#"
   xmlns:svg="http://www.w3.org/2000/svg"
   xmlns="http://www.w3.org/2000/svg"
   xmlns:sodipodi="http://sodipodi.sourceforge.net/DTD/sodipodi-0.dtd"
   xmlns:inkscape="http://www.inkscape.org/namespaces/inkscape"
   id="svg2"
   version="1.1"
   inkscape:version="0.47 r22583"
   width="200"
   height="200"
   xml:space="preserve"
   sodipodi:docname="logo.svg"
   inkscape:export-filename="/home/erlehmann/themes/wordpress/XH5/images/logo.png"
   inkscape:export-xdpi="90"
   inkscape:export-ydpi="90"><metadata
     id="metadata8"><rdf:RDF><cc:Work
         rdf:about=""><dc:format>image/svg+xml</dc:format><dc:type
           rdf:resource="http://purl.org/dc/dcmitype/StillImage" /><dc:title></dc:title></cc:Work></rdf:RDF></metadata><defs
     id="defs6"><inkscape:perspective
       sodipodi:type="inkscape:persp3d"
       inkscape:vp_x="0 : 0.5 : 1"
       inkscape:vp_y="0 : 1000 : 0"
       inkscape:vp_z="1 : 0.5 : 1"
       inkscape:persp3d-origin="0.5 : 0.33333333 : 1"
       id="perspective10" /><clipPath
       clipPathUnits="userSpaceOnUse"
       id="clipPath20"><path
         d="M 0,2790 0,0 l 2790,0 0,2790 -2790,0 z"
         id="path22" /></clipPath></defs><sodipodi:namedview
     pagecolor="#ffffff"
     bordercolor="#666666"
     borderopacity="1"
     objecttolerance="10"
     gridtolerance="10"
     guidetolerance="10"
     inkscape:pageopacity="0"
     inkscape:pageshadow="2"
     inkscape:window-width="1280"
     inkscape:window-height="750"
     id="namedview4"
     showgrid="false"
     inkscape:zoom="1.9881"
     inkscape:cx="41.338937"
     inkscape:cy="105.98058"
     inkscape:window-x="0"
     inkscape:window-y="25"
     inkscape:window-maximized="1"
     inkscape:current-layer="g12" /><g
     id="g12"
     inkscape:groupmode="layer"
     inkscape:label="ink_ext_XXXXXX"
     transform="matrix(1.25,0,0,-1.25,-74.375,274.375)"><path
       id="path26"
       style="fill:#eeeeec;fill-opacity:1;fill-rule:nonzero;stroke:none"
       d="m 65.981835,66.366237 15.490409,0 0,7.571039 -7.223111,0 0,23.409261 -8.267298,0 0,-30.9803" /><path
       id="path28"
       style="fill:#eeeeec;fill-opacity:1;fill-rule:evenodd;stroke:none"
       d="m 89.299742,102.9162 c 0,-2.08912 1.696917,-3.786035 3.785634,-3.786035 2.08866,0 3.785577,1.696915 3.785577,3.786035 0,2.08849 -1.696917,3.78541 -3.785577,3.78541 -2.088717,0 -3.785634,-1.69692 -3.785634,-3.78541 l 0,0 z m 10.007856,0 c 0,-2.08912 1.696862,-3.786035 3.785582,-3.786035 2.08871,0 3.78563,1.696915 3.78563,3.786035 0,2.08849 -1.69692,3.78541 -3.78563,3.78541 -2.08872,0 -3.785582,-1.69692 -3.785582,-3.78541 l 0,0 z m 0.783372,-24.36691 -4.003386,0 1.958136,12.792316 0.08688,0 1.958368,-12.792316 0,0 z m -14.446282,-12.183053 8.615398,0 0.78314,5.220931 6.091874,0 0.78314,-5.220931 8.61557,0 -6.04835,30.9803 -12.7926,0 -6.048172,-30.9803 0,0" /><path
       id="path30"
       style="fill:#eeeeec;fill-opacity:1;fill-rule:nonzero;stroke:none"
       d="m 115.9402,66.366237 7.5707,0 0,19.841204 0.0872,0 6.09205,-19.841204 9.44172,0 0,30.9803 -7.57104,0 0,-19.885304 -0.0872,0 -6.09147,19.885304 -9.44195,0 0,-30.9803" /><path
       id="path32"
       style="fill:#eeeeec;fill-opacity:1;fill-rule:nonzero;stroke:none"
       d="m 158.11792,78.41848 3.08932,0 0,-2.044616 c 0,-1.610208 -0.87054,-2.697577 -2.95971,-2.697577 -3.00158,0 -4.17663,2.958566 -4.17663,7.74486 0,5.482552 2.21878,8.87633 6.43957,8.87633 2.13218,0 4.30738,-1.000889 5.39526,-2.218839 l 0,8.48453 c -1.522,0.7399 -3.69835,1.305348 -6.78767,1.305348 -8.74552,0 -13.57534,-7.04929 -13.57534,-15.968401 0,-9.529577 3.74137,-16.056258 12.27068,-16.056258 7.30954,0 10.96431,4.350795 10.96431,10.747526 l 0,8.092732 -10.65979,0 0,-6.265635" /><path
       id="path34"
       style="fill:#eeeeec;fill-opacity:1;fill-rule:nonzero;stroke:none"
       d="m 175.66516,66.366237 15.49018,0 0,7.571039 -7.22294,0 0,23.409261 -8.26724,0 0,-30.9803" /><path
       id="path36"
       style="fill:#eeeeec;fill-opacity:1;fill-rule:nonzero;stroke:none"
       d="m 196.98072,66.366237 15.79526,0 0,7.22248 -7.52802,0 0,4.873175 6.52673,0 0,7.223169 -6.52673,0 0,4.437907 7.44086,0 0,7.223569 -15.7081,0 0,-30.9803" /><path
       id="path38"
       style="fill:#eeeeec;fill-opacity:1;fill-rule:evenodd;stroke:none"
       d="m 74.249133,145.06559 1.30529,0 c 2.132186,0 3.829104,-0.91355 3.829104,-3.26308 0,-2.39369 -1.784086,-3.52459 -3.654825,-3.52459 -0.52215,0 -1.001118,0.043 -1.479569,0.13075 l 0,6.65692 z m -8.267298,-24.01892 8.267298,0 0,10.96487 2.175827,0 4.263857,-10.96487 8.528688,0 -5.526193,13.14064 c 3.176545,1.30581 4.481605,4.30796 4.481605,7.91971 0,4.96 -2.436587,9.92058 -10.399197,9.92058 l -11.791885,0 0,-30.98093" /><path
       id="path40"
       style="fill:#eeeeec;fill-opacity:1;fill-rule:evenodd;stroke:none"
       d="m 118.28824,136.53742 c -0.0436,8.441 -3.48066,16.01204 -13.05347,16.01204 -9.57282,0 -13.010068,-7.57104 -13.053537,-16.01204 -0.0437,-8.96344 3.741935,-16.01262 13.053537,-16.01262 9.31137,0 13.09706,7.04918 13.05347,16.01262 l 0,0 z m -17.57878,0.21735 c 0,5.61319 1.82727,7.96272 4.52531,7.96272 2.6978,0 4.5253,-2.34953 4.5253,-7.96272 0,-5.61319 -1.8275,-7.96273 -4.5253,-7.96273 -2.69804,0 -4.52531,2.34954 -4.52531,7.96273 l 0,0" /><path
       id="path42"
       style="fill:#eeeeec;fill-opacity:1;fill-rule:evenodd;stroke:none"
       d="m 131.19434,145.06559 1.43598,0 c 2.5233,0 3.82911,-0.65262 3.82911,-2.61046 0,-1.47957 -0.91413,-2.52388 -2.95857,-2.52388 l -2.30652,0 0,5.13434 z m 0,-11.13921 2.26236,0 c 2.30653,0 3.35083,-0.7828 3.35083,-2.7848 0,-1.65334 -0.91413,-2.8714 -2.87197,-2.8714 l -2.74122,0 0,5.6562 z m -8.26724,-12.87971 11.66107,0 c 7.52746,0 10.74753,4.56889 10.74753,9.00702 0,4.65606 -2.74122,6.65749 -5.39527,7.31011 l 0,0.0872 c 2.82781,0.91412 4.56832,3.17648 4.56832,6.35297 0,4.30796 -2.8714,8.22366 -9.61606,8.22366 l -11.96559,0 0,-30.98093" /><path
       id="path44"
       style="fill:#eeeeec;fill-opacity:1;fill-rule:nonzero;stroke:none"
       d="m 149.779,121.04667 15.79526,0 0,7.22351 -7.52802,0 0,4.8734 6.52673,0 0,7.22294 -6.52673,0 0,4.43814 7.44028,0 0,7.22294 -15.70752,0 0,-30.98093" /><path
       id="path46"
       style="fill:#eeeeec;fill-opacity:1;fill-rule:evenodd;stroke:none"
       d="m 178.40122,145.06559 1.30466,0 c 2.13161,0 3.82968,-0.91355 3.82968,-3.26308 0,-2.39369 -1.78409,-3.52459 -3.65592,-3.52459 -0.52186,0 -1.00014,0.043 -1.47842,0.13075 l 0,6.65692 z m -8.26839,-24.01892 8.26839,0 0,10.96487 2.1752,0 4.26437,-10.96487 8.52817,0 -5.52659,13.14064 c 3.17648,1.30581 4.48229,4.30796 4.48229,7.91971 0,4.96 -2.43728,9.92058 -10.39943,9.92058 l -11.7924,0 0,-30.98093" /><path
       id="path48"
       style="fill:#eeeeec;fill-opacity:1;fill-rule:nonzero;stroke:none"
       d="m 200.0253,121.04667 8.26724,0 0,23.75799 5.3081,0 0,7.22294 -18.88458,0 0,-7.22294 5.30924,0 0,-23.75799" /><path
       id="path50"
       style="fill:#eeeeec;fill-opacity:1;fill-rule:nonzero;stroke:none"
       d="m 67.541864,194.00208 c 0,0.76846 0,2.21534 0,3.79813 0,1.58223 0.361347,2.21592 1.537204,2.21592 1.175857,0 1.492416,-0.63369 1.492416,-2.21592 0,-0.99498 0,-4.7025 0,-4.7025 l 1.401634,0 c 0,0 0,3.61749 0,4.88372 0,1.76344 -0.994867,2.4866 -2.89405,2.4866 -1.898953,0 -2.984315,-0.72316 -2.984315,-2.4866 0,-1.71871 0,-3.16559 0,-4.16057 0,-2.5319 1.175398,-3.88875 2.396501,-5.2909 1.356846,-1.58222 2.034983,-2.9838 2.034983,-5.87813 0,-0.54251 0,-2.84846 0,-3.93405 0,-1.58222 -0.226294,-2.21534 -1.447169,-2.21534 -1.175857,0 -1.537204,0.63312 -1.537204,2.21534 0,0.90437 0,5.15498 0,5.15498 l -1.447111,0 c 0,0 0,-4.20473 0,-5.33563 0,-1.76344 1.085362,-2.48717 2.984315,-2.48717 1.899183,0 2.89405,0.72373 2.89405,2.48717 0,0.85907 0,3.61749 0,4.43126 0,3.2562 -1.356616,5.20028 -2.441749,6.46652 -1.401692,1.62753 -1.989505,2.5319 -1.989505,4.56717 l 0,0" /><path
       id="path52"
       style="fill:#eeeeec;fill-opacity:1;fill-rule:nonzero;stroke:none"
       d="m 85.36334,184.55118 c 0,0 0,-3.97935 0,-5.8334 0,-1.58222 -0.361749,-2.26065 -1.537376,-2.26065 -1.085362,0 -1.447168,0.67843 -1.447168,2.26065 0,8.95312 0,10.12932 0,19.08243 0,1.58223 0.407283,2.21592 1.582681,2.21592 1.175856,0 1.401863,-0.72373 1.401863,-2.30652 0,-0.99441 0,-4.88373 0,-4.88373 l 1.401922,0 c 0,0 0,4.2053 0,5.06437 0,1.76401 -0.904373,2.57778 -2.803785,2.57778 -1.898954,0 -2.984316,-0.72316 -2.984316,-2.4866 0,-8.99899 0,-10.31053 0,-19.30896 0,-1.76344 0.949792,-2.66781 2.848803,-2.66781 1.899183,0 2.939298,0.76903 2.939298,2.53247 0,1.94409 0,6.01405 0,6.01405 l -1.401922,0 0,0" /><path
       id="path54"
       style="fill:#eeeeec;fill-opacity:1;fill-rule:nonzero;stroke:none"
       d="m 98.934609,199.92552 c 1.220871,0 1.446881,-0.85907 1.446881,-2.71312 0,-8.13935 0,-20.98122 0,-20.98122 l 1.44711,0 c 0,0 0,12.93248 0,21.11713 0,2.17004 -0.99481,3.11972 -2.667984,3.11972 -1.13038,0 -1.718193,-0.76846 -1.853935,-1.35685 l 0,11.98337 -1.446939,0 0,-34.86337 1.446939,0 0,19.21778 c 0,3.16502 0.542566,4.47656 1.627928,4.47656 l 0,0" /><path
       id="path56"
       style="fill:#eeeeec;fill-opacity:1;fill-rule:evenodd;stroke:none"
       d="m 114.26232,199.74487 c 1.22088,0 1.40164,-0.76903 1.40164,-2.62308 0,-0.90437 -0.13552,-2.80315 -0.13552,-2.80315 l 1.49242,0 c 0,0 0.13591,1.71813 0.13591,2.93907 0,2.26064 -0.99549,3.21032 -2.66821,3.21032 -1.13061,0 -1.80892,-0.90437 -1.94443,-1.62753 l 0,1.17563 -1.44711,0 0,-23.78495 1.44711,0 0,21.38782 c 0.40705,1.08559 0.76857,1.94466 1.71819,2.12587 l 0,0" /><path
       id="path58"
       style="fill:#eeeeec;fill-opacity:1;fill-rule:evenodd;stroke:none"
       d="m 126.86229,197.80021 c 0,1.58223 0.40717,2.21592 1.5828,2.21592 1.17563,0 1.40158,-0.72373 1.40158,-2.30652 0,-0.99441 0,-7.86753 0,-7.86753 l -2.98438,0 0,7.95813 z m 0,-8.54652 4.38653,0 c 0,0 0,7.77749 0,8.63656 0,1.76401 -0.90438,2.57778 -2.80373,2.57778 -1.89936,0 -2.98437,-0.72316 -2.98437,-2.4866 0,-8.99899 0,-10.31053 0,-19.30896 0,-1.76344 0.9491,-2.66781 2.84846,-2.66781 1.89935,0 2.93964,0.76903 2.93964,2.53247 0,1.94409 0,5.51627 0,5.51627 l -1.40215,0 c 0,0 0,-3.48157 0,-5.33562 0,-1.58222 -0.36129,-2.26065 -1.53749,-2.26065 -1.08502,0 -1.44689,0.67843 -1.44689,2.26065 0,0 0,6.82838 0,10.53591 l 0,0" /><path
       id="path60"
       style="fill:#eeeeec;fill-opacity:1;fill-rule:evenodd;stroke:none"
       d="m 141.97111,208.65269 -1.71814,0 0.18008,-3.07498 1.35742,0 0.18064,3.07498 0,0 z m -0.13591,-8.63656 -1.44688,0 0,-23.78495 1.44688,0 0,23.78495" /><path
       id="path62"
       style="fill:#eeeeec;fill-opacity:1;fill-rule:evenodd;stroke:none"
       d="m 154.20337,199.92552 c 1.22093,0 1.44688,-0.85907 1.44688,-2.71312 0,-8.13935 0,-20.98122 0,-20.98122 l 1.44746,0 c 0,0 0,12.93248 0,21.11713 0,2.17004 -0.99613,3.11972 -2.66839,3.11972 -1.1309,0 -1.71814,-0.76846 -1.85463,-1.35685 l 0,0.90495 -1.4463,0 0,-23.78495 1.4463,0 0,19.21778 c 0,3.16502 0.54309,4.47656 1.62868,4.47656 l 0,0" /><path
       id="path64"
       style="fill:#eeeeec;fill-opacity:1;fill-rule:evenodd;stroke:none"
       d="m 167.67663,197.80021 c 0,1.58223 0.40774,2.21592 1.5828,2.21592 1.17562,0 1.40215,-0.72373 1.40215,-2.30652 0,-0.99441 0,-7.86753 0,-7.86753 l -2.98495,0 0,7.95813 z m 0,-8.54652 4.38595,0 c 0,0 0,7.77749 0,8.63656 0,1.76401 -0.9038,2.57778 -2.80315,2.57778 -1.89879,0 -2.98438,-0.72316 -2.98438,-2.4866 0,-8.99899 0,-10.31053 0,-19.30896 0,-1.76344 0.95025,-2.66781 2.84846,-2.66781 1.89993,0 2.93907,0.76903 2.93907,2.53247 0,1.94409 0,5.51627 0,5.51627 l -1.401,0 c 0,0 0,-3.48157 0,-5.33562 0,-1.58222 -0.36187,-2.26065 -1.53807,-2.26065 -1.08502,0 -1.44688,0.67843 -1.44688,2.26065 0,0 0,6.82838 0,10.53591 l 0,0" /><path
       id="path66"
       style="fill:#eeeeec;fill-opacity:1;fill-rule:evenodd;stroke:none"
       d="m 184.32294,199.74487 c 1.22093,0 1.40158,-0.76903 1.40158,-2.62308 0,-0.90437 -0.13592,-2.80315 -0.13592,-2.80315 l 1.49219,0 c 0,0 0.13649,1.71813 0.13649,2.93907 0,2.26064 -0.99556,3.21032 -2.66782,3.21032 -1.13147,0 -1.80932,-0.90437 -1.94466,-1.62753 l 0,1.17563 -1.44688,0 0,-23.78495 1.44688,0 0,21.38782 c 0.4066,1.08559 0.76846,1.94466 1.71814,2.12587 l 0,0" /><path
       id="path68"
       style="fill:#eeeeec;fill-opacity:1;fill-rule:evenodd;stroke:none"
       d="m 196.9228,197.80021 c 0,1.58223 0.40659,2.21592 1.58279,2.21592 1.17563,0 1.40215,-0.72373 1.40215,-2.30652 0,-0.99441 0,-7.86753 0,-7.86753 l -2.98494,0 0,7.95813 z m 0,-8.54652 4.38594,0 c 0,0 0,7.77749 0,8.63656 0,1.76401 -0.90379,2.57778 -2.80315,2.57778 -1.89878,0 -2.9838,-0.72316 -2.9838,-2.4866 0,-8.99899 0,-10.31053 0,-19.30896 0,-1.76344 0.94853,-2.66781 2.84789,-2.66781 1.89993,0 2.93906,0.76903 2.93906,2.53247 0,1.94409 0,5.51627 0,5.51627 l -1.401,0 c 0,0 0,-3.48157 0,-5.33562 0,-1.58222 -0.36186,-2.26065 -1.53806,-2.26065 -1.08502,0 -1.44688,0.67843 -1.44688,2.26065 0,0 0,6.82838 0,10.53591 l 0,0" /><path
       id="path70"
       style="fill:#eeeeec;fill-opacity:1;fill-rule:evenodd;stroke:none"
       d="m 212.03161,208.65269 -1.71871,0 0.18065,-3.07498 1.35742,0 0.18064,3.07498 0,0 z m -0.13591,-8.63656 -1.44688,0 0,-23.78495 1.44688,0 0,23.78495" /><path
       id="path72"
       style="fill:none;stroke:#eeeeec;stroke-width:1.6;stroke-linecap:butt;stroke-linejoin:miter;stroke-miterlimit:3.8636899;stroke-opacity:1;stroke-dasharray:3.2,1.6;stroke-dashoffset:0;opacity:0.20000000000000001"
       d="m 64.610664,111.75738 150.328476,-0.0607 m -149.996714,51.86982 149.826394,0" /></g></svg>